# xmcd
#
# Track frame offsets:
#	150
#	18897
#	37269
#	58013
#	75406
#	95643
#	113122
#	132234
#	154209
#	168686
#	186561
#	205950
#	227974
#	245377
#	264155
#	283720
#	300095
#	320339
#	345328
#
# Disc length: 4777 seconds
#
# Revision: 2
# Processed by: cddbd v1.4PL0 Copyright (c) Steve Scherf et al.
# Submitted via: audiograbber 1.80
#
DISCID=0612a713
DTITLE=Aaliyah - ...The Definitely Hits
DYEAR=1900
DGENRE=
TTITLE0=Try Again
TTITLE1=We Need A Resolution
TTITLE2=Rock The Boat
TTITLE3=More Than A Woman
TTITLE4=Are You That Somebody?
TTITLE5=Back and Forth
TTITLE6=Age Ain't Nothing But A Number
TTITLE7=If You Girl Only Knew
TTITLE8=Are You Feelin' Me?
TTITLE9=The One I Gave My Heart To
TTITLE10=Turn The Page
TTITLE11=At Your Best You Are Love
TTITLE12=Loose Rap
TTITLE13=It's Whatever
TTITLE14=Come Back In One Piece - Feat. DMX
TTITLE15=Messed Up
TTITLE16=Are You That Somebody (A Cappella)
TTITLE17=Try Again (DJ Hassan Remix)
TTITLE18=I Gotcha' Back
EXTD=
EXTT0=
EXTT1=
EXTT2=
EXTT3=
EXTT4=
EXTT5=
EXTT6=
EXTT7=
EXTT8=
EXTT9=
EXTT10=
EXTT11=
EXTT12=
EXTT13=
EXTT14=
EXTT15=
EXTT16=
EXTT17=
EXTT18=
PLAYORDER=
